<svg id="icons" enable-background="new 0 0 64 64" height="512" viewBox="0 0 64 64" width="512" xmlns="http://www.w3.org/2000/svg"><path d="m55.495 62c0 .55-.45 1-1 1h-15.99c-.55 0-1-.45-1-1v-25.99c0-.55.45-1 1-1h15.99c.55 0 1 .45 1 1z" fill="#a0d468"/><path d="m55.495 61c0 .55-.45 1-1 1h-15.99c-.55 0-1-.45-1-1v-25.99c0-.55.45-1 1-1h15.99c.55 0 1 .45 1 1z" fill="#8cc152"/><path d="m55.495 60c0 .55-.45 1-1 1h-15.99c-.55 0-1-.45-1-1v-25.99c0-.55.45-1 1-1h15.99c.55 0 1 .45 1 1z" fill="#a0d468"/><path d="m55.495 59c0 .55-.45 1-1 1h-15.99c-.55 0-1-.45-1-1v-25.99c0-.55.45-1 1-1h15.99c.55 0 1 .45 1 1z" fill="#8cc152"/><path d="m55.495 58c0 .55-.45 1-1 1h-15.99c-.55 0-1-.45-1-1v-25.99c0-.55.45-1 1-1h15.99c.55 0 1 .45 1 1z" fill="#a0d468"/><path d="m55.495 57c0 .55-.45 1-1 1h-15.99c-.55 0-1-.45-1-1v-25.99c0-.55.45-1 1-1h15.99c.55 0 1 .45 1 1z" fill="#8cc152"/><path d="m55.495 56c0 .55-.45 1-1 1h-15.99c-.55 0-1-.45-1-1v-25.99c0-.55.45-1 1-1h15.99c.55 0 1 .45 1 1z" fill="#a0d468"/><path d="m15.505 1c-3.87 0-7 3.13-7 7 0 3.86 3.13 7 7 7s7-3.14 7-7c0-3.87-3.13-7-7-7z" fill="#ac92ec"/><path d="m40.495 29.01h-1.99c-.55 0-1 .45-1 1v1.99c1.66-.01 2.99-1.34 2.99-2.99z" fill="#8cc152"/><path d="m54.495 29.01h-1.99c.01 1.66 1.34 2.99 2.99 2.99v-1.99c0-.55-.45-1-1-1z" fill="#8cc152"/><path d="m52.505 57h1.99c.55 0 1-.45 1-1v-2c-1.65 0-2.99 1.34-2.99 3z" fill="#8cc152"/><path d="m37.505 54v2c0 .55.45 1 1 1h1.99c0-1.65-1.33-2.99-2.99-3z" fill="#8cc152"/><path d="m46.495 39.01c2.21 0 4 1.79 4 4 0 2.2-1.79 4-4 4s-4-1.8-4-4c0-2.21 1.79-4 4-4z" fill="#8cc152"/><path d="m15.505 19.01c-3.87 0-7-3.14-7-7v-4.01c0 3.86 3.13 7 7 7s7-3.14 7-7v4.01c0 3.86-3.13 7-7 7z" fill="#967adc"/><path d="m15.505 26.98c3.87 0 7-3.131 7-7v3.989c0 3.86-3.13 7-7 7s-7-3.14-7-7v-3.989c0 3.87 3.13 7 7 7z" fill="#ac92ec"/><path d="m15.505 26.98c-3.87 0-7-3.131-7-7v-3.99c0 3.87 3.13 7 7 7s7-3.13 7-7v3.99c0 3.87-3.13 7-7 7z" fill="#967adc"/><path d="m15.505 22.99c-3.87 0-7-3.13-7-7v-3.98c0 3.86 3.13 7 7 7s7-3.14 7-7v3.98c0 3.87-3.13 7-7 7z" fill="#ac92ec"/><path d="m15.505 35.01c-3.87 0-7-3.14-7-7v-.04-4c0 3.86 3.13 7 7 7s7-3.14 7-7v4 .04c0 3.86-3.13 7-7 7z" fill="#967adc"/><g fill="#e6e9ed"><path d="m18.665 7.29-1.58 1.54.37 2.17-1.95-1.02-1.95 1.02.37-2.17-1.57-1.54 2.17-.32.98-1.97.98 1.97z"/><path d="m15.486 51.986c-.553 0-1-.447-1-1v-12c0-.553.447-1 1-1s1 .447 1 1v12c0 .553-.447 1-1 1z"/><path d="m33.482 51.986h-17.996c-.553 0-1-.447-1-1s.447-1 1-1h17.996c.553 0 1 .447 1 1s-.447 1-1 1z"/><path d="m30.482 54.986c-.256 0-.512-.098-.707-.293-.391-.391-.391-1.023 0-1.414l3-3c.391-.391 1.023-.391 1.414 0s.391 1.023 0 1.414l-3 3c-.195.196-.451.293-.707.293z"/><path d="m33.482 51.986c-.256 0-.512-.098-.707-.293l-3-3c-.391-.391-.391-1.023 0-1.414s1.023-.391 1.414 0l3 3c.391.391.391 1.023 0 1.414-.195.196-.451.293-.707.293z"/><path d="m46.479 25.986c-.553 0-1-.447-1-1v-10.999c0-.553.447-1 1-1s1 .447 1 1v10.999c0 .553-.448 1-1 1z"/><path d="m46.479 14.987h-19.998c-.553 0-1-.447-1-1s.447-1 1-1h19.997c.553 0 1 .447 1 1s-.447 1-.999 1z"/><path d="m26.481 14.987c-.256 0-.512-.098-.707-.293-.391-.391-.391-1.023 0-1.414l3-3c.391-.391 1.023-.391 1.414 0s.391 1.023 0 1.414l-3 3c-.195.196-.451.293-.707.293z"/><path d="m29.481 17.987c-.256 0-.512-.098-.707-.293l-3-3c-.391-.391-.391-1.023 0-1.414s1.023-.391 1.414 0l3 3c.391.391.391 1.023 0 1.414-.195.196-.451.293-.707.293z"/></g></svg>